<svg width="51" height="32" viewBox="0 0 51 32" fill="none" xmlns="http://www.w3.org/2000/svg">
<rect x="2" y="3" width="46" height="27" fill="white"/>
<rect x="2" y="3" width="46" height="27" fill="white"/>
<path d="M49.4881 0.361024H0.91814C0.0832592 0.361024 0.202687 0.265008 0.202687 1.09989L0.202689 29.6605C0.202689 30.4954 0.879622 31.1723 1.7145 31.1723H49.4881C50.323 31.1723 51 30.4954 51 29.6605V1.87284C51 1.03796 50.3231 0.361024 49.4881 0.361024ZM44.7252 21.8623C42.909 21.8623 41.4315 23.3398 41.4315 25.1559C41.4315 25.9908 40.7546 26.6678 39.9197 26.6678H11.283C10.4482 26.6678 9.77123 25.9908 9.77123 25.1559C9.77123 23.3397 8.29364 21.8623 6.47754 21.8623C5.64266 21.8623 4.96573 21.1853 4.96573 20.3504V11.1828C4.96573 10.3479 5.64266 9.67101 6.47754 9.67101C8.29374 9.67101 9.77123 8.19343 9.77123 6.37733C9.77123 5.54244 10.4482 4.86551 11.283 4.86551H39.9196C40.7545 4.86551 41.4314 5.54244 41.4314 6.37733C41.4314 8.19353 42.909 9.67101 44.7251 9.67101C45.56 9.67101 46.2369 10.3479 46.2369 11.1828V20.3504C46.2368 21.1853 45.5601 21.8623 44.7252 21.8623Z" fill="black"/>
<path d="M25.6013 12.3774C23.7325 12.3774 22.2119 13.8979 22.2119 15.7669C22.2119 17.6359 23.7324 19.1563 25.6013 19.1563C27.4703 19.1563 28.9908 17.6359 28.9908 15.7669C28.9908 13.8979 27.4703 12.3774 25.6013 12.3774Z" fill="black"/>
<path d="M38.5905 7.88916H12.612C12.0522 10.1604 10.2606 11.952 7.98926 12.5118V19.0214C10.2605 19.5813 12.0521 21.3729 12.612 23.6441H38.5905C39.1503 21.3729 40.942 19.5812 43.2133 19.0214V12.5118C40.942 11.9519 39.1503 10.1604 38.5905 7.88916ZM25.6012 22.1799C22.0652 22.1799 19.1882 19.303 19.1882 15.7668C19.1882 12.2305 22.0651 9.35375 25.6012 9.35375C29.1374 9.35375 32.0143 12.2306 32.0143 15.7668C32.0143 19.303 29.1374 22.1799 25.6012 22.1799Z" fill="black"/>
</svg>
