<svg width="51" height="32" viewBox="0 0 51 32" fill="none" xmlns="http://www.w3.org/2000/svg">
<rect y="0.541748" width="51" height="31" fill="black"/>
<path d="M30.29 5.96783H21.9717V20.9104H30.29V5.96783Z" fill="#D9D9D9"/>
<path d="M22.4998 13.4391C22.4998 10.4031 23.9258 7.7103 26.1176 5.96788C24.5068 4.70067 22.4734 3.93506 20.2552 3.93506C15.0001 3.93506 10.7485 8.1855 10.7485 13.4391C10.7485 18.6928 15.0001 22.9432 20.2552 22.9432C22.4734 22.9432 24.5068 22.1776 26.1176 20.9104C23.9258 19.1944 22.4998 16.4752 22.4998 13.4391Z" fill="white"/>
<path d="M41.5131 13.4391C41.5131 18.6928 37.2615 22.9432 32.0065 22.9432C29.7883 22.9432 27.7549 22.1776 26.144 20.9104C28.3623 19.168 29.7618 16.4752 29.7618 13.4391C29.7618 10.4031 28.3359 7.7103 26.144 5.96788C27.7549 4.70067 29.7883 3.93506 32.0065 3.93506C37.2615 3.93506 41.5131 8.2119 41.5131 13.4391Z" fill="white"/>
</svg>
