<svg width="51" height="32" viewBox="0 0 51 32" fill="none" xmlns="http://www.w3.org/2000/svg">
<rect y="0.541748" width="51" height="31" fill="black"/>
<path fill-rule="evenodd" clip-rule="evenodd" d="M8.46715 10.0603C8.83665 10.0581 9.9348 9.95992 10.4 11.5187C10.7133 12.5687 11.2124 14.2886 11.8973 16.6785H12.1763C12.9108 14.1589 13.4153 12.439 13.69 11.5187C14.16 9.94369 15.335 10.0604 15.805 10.0604L19.4311 10.0604V21.2603H15.7352V14.66H15.4874L13.4271 21.2603H10.6464L8.58617 14.6551H8.33834V21.2603H4.64246V10.0604L8.46715 10.0603ZM24.7383 10.0604V16.6656H25.0332L27.5393 11.2342C28.0258 10.1533 29.0626 10.0604 29.0626 10.0604H32.6391V21.2604H28.8661V14.6551H28.5712L26.1142 20.0866C25.6278 21.1625 24.5418 21.2604 24.5418 21.2604H20.9653V10.0604H24.7383ZM45.6806 15.3827C45.1543 16.8635 43.5014 17.9241 41.6716 17.9241H37.7148V21.2604H34.1268V15.3827H45.6806Z" fill="white"/>
<path fill-rule="evenodd" clip-rule="evenodd" d="M41.8446 10.0604H33.9386C34.1268 12.5539 36.2894 14.6885 38.5282 14.6885H45.9298C46.357 12.6161 44.8866 10.0604 41.8446 10.0604Z" fill="#D1D1D1"/>
</svg>
