<svg width="51" height="32" viewBox="0 0 51 32" fill="none" xmlns="http://www.w3.org/2000/svg">
<rect x="2" y="3" width="46" height="27" fill="white"/>
<rect x="2" y="3" width="46" height="27" fill="white"/>
<path d="M40.6873 12.6115C40.5203 13.0961 40.2292 13.8791 40.2482 13.8452C40.2482 13.8452 39.2042 16.7149 38.9298 17.4583H41.6765C41.5454 16.8116 40.9107 13.7268 40.9107 13.7268L40.6873 12.6115Z" fill="black"/>
<path d="M0 0V31.1223H50.7973V0H0ZM11.3586 22.031L8.71424 11.9397L4.94017 9.12456H11.6089L13.3285 17.933L16.5653 9.1249H20.0716L14.8607 22.0312H11.3586V22.031ZM22.65 22.0412H19.3411L21.4113 9.11443H24.72L22.65 22.0412ZM28.4104 22.2334C26.9253 22.217 25.4954 21.9045 24.7236 21.5444L25.1864 18.651L25.6124 18.8567C26.7005 19.3392 27.4044 19.5348 28.729 19.5348C29.6807 19.5348 30.7009 19.1378 30.7095 18.2721C30.7149 17.7063 30.2818 17.3011 28.9922 16.668C27.738 16.0509 26.0736 15.0137 26.0937 13.1561C26.1137 10.6435 28.4166 8.88907 31.6879 8.88907C32.969 8.88907 33.9988 9.1722 34.6529 9.43169L34.2054 12.2339L33.9081 12.0861C33.2968 11.8236 32.5143 11.5717 31.4312 11.5896C30.1353 11.5896 29.5364 12.1646 29.5357 12.7016C29.5275 13.3087 30.2375 13.7057 31.3937 14.3055C33.3032 15.2278 34.1848 16.3443 34.1732 17.818C34.1469 20.5001 31.8877 22.2334 28.4104 22.2334ZM42.6187 22.0462C42.6187 22.0462 42.3142 20.5599 42.2157 20.1099C41.7338 20.1099 38.3572 20.1024 37.9779 20.1024C37.8493 20.4527 37.2822 22.0464 37.2822 22.0464H33.8061L38.7209 10.1991C39.0677 9.35646 39.6619 9.12761 40.4553 9.12761H43.012L45.6897 22.0465H42.6187V22.0462Z" fill="black"/>
</svg>
