<svg width="94" height="114" viewBox="0 0 94 114" fill="none" xmlns="http://www.w3.org/2000/svg">
<path d="M88.4523 57.5787L88.4524 57.5786C88.6516 57.4541 88.7727 57.2358 88.7727 57.0005C88.7727 56.7652 88.6516 56.5469 88.4524 56.4224L88.4523 56.4223L5.54318 4.60376L5.54296 4.60363C5.3331 4.47245 5.06861 4.46526 4.85163 4.58521L88.4523 57.5787ZM88.4523 57.5787L5.54375 109.396L88.4523 57.5787ZM4.85123 109.415C4.95397 109.472 5.06635 109.5 5.18182 109.5C5.30779 109.5 5.43213 109.466 5.5432 109.396L4.85123 109.415ZM4.85123 109.415C4.63428 109.294 4.5 109.066 4.5 108.818V5.18196C4.5 4.93436 4.63418 4.70607 4.851 4.58556L4.85123 109.415Z" stroke="#CDA236" stroke-width="9"/>
</svg>
