<svg width="40" height="34" viewBox="0 0 40 34" fill="none" xmlns="http://www.w3.org/2000/svg">
<g clip-path="url(#clip0)">
<path d="M39.6699 0.530684C39.278 0.0533895 38.6283 -0.123613 38.0506 0.0887898L1.35873 13.3484C0.625696 13.6148 0.11117 14.2608 0.0156498 15.0345C-0.0789547 15.8044 0.260401 16.5515 0.896997 16.9815L6.14175 20.5618C6.64987 20.9088 7.30325 20.946 7.84738 20.6589L19.2243 14.6594L10.3574 21.2802C9.94119 21.5912 9.69247 22.0871 9.69247 22.6065V28.7393C9.69247 29.3719 10.0395 29.9515 10.5979 30.2524C11.1573 30.5533 11.833 30.5234 12.3643 30.173L16.349 27.5299L20.2674 30.2017C20.6107 30.437 21.0197 30.5609 21.4323 30.5609C21.5717 30.5609 21.7118 30.5466 21.8498 30.5179C22.4 30.4031 22.8867 30.0632 23.1855 29.5852L39.7862 2.21159C40.1093 1.68455 40.063 1.01012 39.6699 0.530684ZM21.3447 28.0981L17.2868 25.3311C17.0045 25.1382 16.6792 25.0418 16.3542 25.0418C16.0362 25.0418 15.7179 25.1343 15.4392 25.3192L12.0374 27.5757V22.9526L27.6945 11.2616C28.3936 10.7394 28.5697 9.78911 28.1037 9.05119C27.6374 8.31328 26.7039 8.06395 25.9321 8.47105L7.12106 18.3908L2.68502 15.3625L36.4732 3.15245L21.3447 28.0981Z" fill="white"/>
</g>
<defs>
<clipPath id="clip0">
<rect width="40" height="34" fill="white"/>
</clipPath>
</defs>
</svg>
