<svg width="32" height="28" viewBox="0 0 32 28" fill="none" xmlns="http://www.w3.org/2000/svg">
<path d="M31.8577 4.84623C31.6685 4.53847 31.3223 4.36404 30.9619 4.39529L29.3663 4.53429L30.8915 1.45972C31.0731 1.09353 31.0014 0.652342 30.7131 0.362529C30.4247 0.0727156 29.984 -0.00115959 29.6169 0.178591L25.5802 2.15553C23.0863 0.838905 19.9704 1.22972 17.8264 3.18278C16.0371 4.81279 15.0965 7.31948 15.2719 9.81924C10.595 9.35048 6.63628 6.67354 4.2954 2.34816C4.14009 2.06122 3.8489 1.87353 3.52346 1.85047C3.1974 1.82778 2.88327 1.97228 2.68914 2.23459C1.23727 4.19597 1.13539 6.88523 2.27358 9.09767C1.95983 9.01842 1.62595 8.91117 1.2557 8.78748C0.938514 8.68142 0.588826 8.74936 0.334262 8.96636C0.0796992 9.18336 -0.0426762 9.5178 0.0117615 9.84786C0.462138 12.5784 2.05439 14.6769 4.56965 15.919C4.24215 16.0331 3.90796 16.1257 3.56815 16.1965C3.23052 16.2669 2.95715 16.5139 2.85308 16.8427C2.74902 17.1714 2.8304 17.5308 3.06602 17.7826C4.87734 19.7188 7.49385 20.6717 9.35235 21.1288C7.23922 22.7836 4.95815 23.0606 1.64352 22.9468C1.25983 22.9351 0.906327 23.1513 0.745014 23.4991C0.583763 23.847 0.646326 24.2576 0.904014 24.5416C2.28577 26.0647 7.31991 27.7821 12.6119 27.9108C12.8212 27.9159 13.0347 27.9186 13.2527 27.9186C16.9684 27.9186 21.8791 27.1221 25.404 23.5973C28.0719 20.9294 29.7407 17.8581 30.3637 14.4689C30.867 11.7316 30.5489 9.53961 30.3961 8.48611C30.3849 8.40867 30.3729 8.32648 30.3631 8.25461L31.8557 5.84898C32.046 5.5421 32.0469 5.15398 31.8577 4.84623ZM28.5073 8.76011C28.7905 10.7116 29.652 16.6501 24.0545 22.2477C20.8007 25.5014 16.0614 26.0856 12.6583 26.003C9.75448 25.9323 7.1571 25.377 5.27459 24.7436C6.0389 24.6498 6.72003 24.5052 7.36297 24.3054C9.13541 23.7545 10.6328 22.7631 12.0752 21.1857C12.3156 20.9228 12.3895 20.5479 12.2669 20.2134C12.1444 19.8789 11.8456 19.6405 11.4922 19.5953C10.5823 19.4786 7.84816 19.0184 5.69515 17.5333C6.31559 17.2795 6.91397 16.9619 7.48535 16.5829C7.79878 16.3749 7.96091 16.0023 7.89916 15.6312C7.83747 15.2602 7.56366 14.9599 7.19978 14.8646C5.43759 14.4026 3.31083 13.3688 2.33014 11.0611C2.9564 11.1709 3.63733 11.1974 4.36359 11.0346C4.70021 10.9592 4.96996 10.708 5.06896 10.3775C5.16803 10.047 5.08103 9.68874 4.8414 9.44061C3.62115 8.17673 3.16483 6.35535 3.55633 4.79679C4.83846 6.6706 6.46278 8.24761 8.32379 9.41355C10.7045 10.9051 13.4831 11.7294 16.3594 11.7971C16.6521 11.8033 16.9329 11.6756 17.1193 11.4488C17.3055 11.2221 17.3771 10.9223 17.3134 10.6359C16.8186 8.41117 17.5244 6.03954 19.1116 4.59372C20.7579 3.09403 23.191 2.86653 25.0283 4.04085C25.3088 4.22016 25.6628 4.24022 25.9619 4.09372L27.9332 3.12822L26.9014 5.20829C26.7481 5.51735 26.7735 5.8851 26.968 6.17004C27.1623 6.45498 27.4949 6.61317 27.8391 6.58298L29.2292 6.46192L28.5888 7.49411C28.3739 7.84054 28.4185 8.14792 28.5073 8.76011Z" fill="white"/>
</svg>
