<svg width="35" height="35" viewBox="0 0 35 35" fill="none" xmlns="http://www.w3.org/2000/svg">
<path d="M20.833 0H14.1664C7.18386 0 1.50305 5.67948 1.50305 12.6607V18.6661C1.50305 23.865 4.69772 28.5374 9.50138 30.4403V34.3335C9.50138 34.5974 9.65668 34.836 9.89796 34.9427C9.98461 34.9813 10.0766 35 10.1679 35C10.3299 35 10.4905 34.9407 10.6151 34.8274L14.4803 31.3268H20.833C27.8155 31.3268 33.4963 25.6473 33.4963 18.6661V12.6607C33.4963 5.67948 27.8155 0 20.833 0ZM32.1633 18.6661C32.1633 24.9121 27.081 29.9937 20.833 29.9937H14.2231C14.0578 29.9937 13.8985 30.055 13.7758 30.1663L10.8344 32.8305V29.9784C10.8344 29.6958 10.6565 29.4438 10.3899 29.3505C5.87214 27.7528 2.83611 23.4591 2.83611 18.6661V12.6607C2.83611 6.41466 7.91904 1.33305 14.1664 1.33305H20.833C27.081 1.33305 32.1633 6.41466 32.1633 12.6607V18.6661Z" fill="white"/>
<path d="M26.3086 20.3244L22.2121 17.6636C21.7642 17.3723 21.231 17.2737 20.7091 17.3817C20.1866 17.4916 19.7373 17.8003 19.4461 18.2502L19.2534 18.5461C17.4805 17.9602 15.5255 17.2117 14.3551 13.8238L14.8397 13.4025C15.6715 12.6793 15.7588 11.4143 15.0356 10.5811L11.831 6.89454C11.5897 6.61659 11.1685 6.58793 10.8905 6.82855L8.87827 8.57752C7.1133 10.1119 7.9378 12.3814 8.20907 13.1272C8.22107 13.1606 8.23574 13.1926 8.25307 13.2239C8.32305 13.3492 9.99403 16.3312 12.6928 19.08C15.4022 21.8401 20.2939 24.3889 20.4438 24.4629C21.0024 24.8254 21.6309 24.9994 22.2528 24.9994C23.3446 24.9994 24.415 24.4642 25.0535 23.4831L26.5052 21.2475C26.7052 20.9376 26.6172 20.525 26.3086 20.3244ZM23.9351 22.7565C23.3346 23.6817 22.0935 23.9443 21.1137 23.3124C21.065 23.2871 16.2054 20.7563 13.6439 18.1468C11.2498 15.708 9.6601 12.9986 9.44348 12.6207C8.91559 11.1403 9.00891 10.2305 9.75275 9.58397L11.2624 8.27225L14.0299 11.4556C14.2758 11.7382 14.2471 12.1514 13.9659 12.396L13.148 13.1066C12.9487 13.2799 12.8701 13.5538 12.9481 13.8058C14.3425 18.3368 17.0539 19.2266 19.0335 19.8765L19.3221 19.9718C19.6107 20.0691 19.9266 19.9578 20.0919 19.7032L20.5645 18.9753C20.6618 18.8247 20.8111 18.7227 20.9844 18.6861C21.1584 18.6487 21.3357 18.6834 21.4863 18.7814L25.0242 21.0789L23.9351 22.7565Z" fill="white"/>
<path d="M19.0214 10.8291C18.6668 10.7272 18.2982 10.9331 18.1976 11.2877C18.0969 11.6416 18.3022 12.0102 18.6561 12.1109C19.6493 12.3935 20.4404 13.186 20.7204 14.1798C20.803 14.473 21.0703 14.6657 21.3616 14.6657C21.4216 14.6657 21.4822 14.6577 21.5429 14.641C21.8968 14.541 22.1034 14.1731 22.0034 13.8185C21.5989 12.3828 20.4558 11.2371 19.0214 10.8291Z" fill="white"/>
<path d="M24.0938 14.8096C24.1538 14.8096 24.2144 14.8016 24.2751 14.7849C24.6297 14.6849 24.8356 14.3164 24.7356 13.9624C23.9491 11.1744 21.7303 8.95082 18.9442 8.15765C18.5903 8.05568 18.2217 8.26296 18.121 8.61689C18.0204 8.97082 18.2257 9.3394 18.5796 9.44005C20.9238 10.1066 22.7907 11.9788 23.4526 14.3244C23.5359 14.6176 23.8025 14.8096 24.0938 14.8096Z" fill="white"/>
<path d="M18.6569 5.05363C18.3023 4.95165 17.9337 5.1576 17.8331 5.51286C17.7324 5.86679 17.9377 6.23538 18.2916 6.33602C22.2635 7.46579 25.4275 10.6371 26.5486 14.6116C26.6312 14.9049 26.8985 15.0975 27.1898 15.0975C27.2498 15.0975 27.3104 15.0895 27.3711 15.0729C27.725 14.9729 27.9316 14.6043 27.8317 14.2504C26.5859 9.83329 23.0707 6.31003 18.6569 5.05363Z" fill="white"/>
</svg>
