<svg width="40" height="33" viewBox="0 0 40 33" fill="none" xmlns="http://www.w3.org/2000/svg">
<g clip-path="url(#clip0)">
<path d="M20.2417 30C26.0283 30 23.965 26.3367 24.4117 25.2833C24.405 24.4967 24.3983 23.74 24.425 23.28C24.7917 23.3833 25.6567 23.8217 27.4433 25.5583C30.2017 28.3417 30.9067 30 33.135 30H37.2367C38.5367 30 39.2133 29.4617 39.5517 29.01C39.8783 28.5733 40.1983 27.8067 39.8483 26.6133C38.9333 23.74 33.5967 18.7783 33.265 18.255C33.315 18.1583 33.395 18.03 33.4367 17.9633H33.4333C34.4867 16.5717 38.5067 10.5483 39.0983 8.13833C39.1 8.135 39.1017 8.13 39.1017 8.125C39.4217 7.025 39.1283 6.31167 38.825 5.90833C38.3683 5.305 37.6417 5 36.66 5H32.5583C31.185 5 30.1433 5.69167 29.6167 6.95333C28.735 9.195 26.2583 13.805 24.4017 15.4367C24.345 13.125 24.3833 11.36 24.4133 10.0483C24.4733 7.49 24.6667 5 22.0117 5H15.565C13.9017 5 12.31 6.81667 14.0333 8.97333C15.54 10.8633 14.575 11.9167 14.9 17.16C13.6333 15.8017 11.38 12.1333 9.78667 7.445C9.34 6.17667 8.66333 5.00167 6.75833 5.00167H2.65667C0.993333 5.00167 0 5.90833 0 7.42667C0 10.8367 7.54833 30 20.2417 30ZM6.75833 7.50167C7.12 7.50167 7.15667 7.50167 7.425 8.26333C9.05667 13.0683 12.7167 20.1783 15.39 20.1783C17.3983 20.1783 17.3983 18.12 17.3983 17.345L17.3967 11.175C17.2867 9.13333 16.5433 8.11667 16.055 7.5L21.9017 7.50667C21.905 7.535 21.8683 14.3317 21.9183 15.9783C21.9183 18.3167 23.775 19.6567 26.6733 16.7233C29.7317 13.2717 31.8467 8.11167 31.9317 7.90167C32.0567 7.60167 32.165 7.5 32.5583 7.5H36.66H36.6767C36.675 7.505 36.675 7.51 36.6733 7.515C36.2983 9.265 32.5967 14.8417 31.3583 16.5733C31.3383 16.6 31.32 16.6283 31.3017 16.6567C30.7567 17.5467 30.3133 18.53 31.3767 19.9133H31.3783C31.475 20.03 31.7267 20.3033 32.0933 20.6833C33.2333 21.86 37.1433 25.8833 37.49 27.4833C37.26 27.52 37.01 27.4933 33.135 27.5017C32.31 27.5017 31.665 26.2683 29.2033 23.785C26.99 21.6317 25.5533 20.7517 24.245 20.7517C21.705 20.7517 21.89 22.8133 21.9133 25.3067C21.9217 28.01 21.905 27.155 21.9233 27.325C21.775 27.3833 21.35 27.5 20.2417 27.5C9.66667 27.5 2.78 10.715 2.515 7.50667C2.60667 7.49833 3.86833 7.50333 6.75833 7.50167Z" fill="white"/>
</g>
<defs>
<clipPath id="clip0">
<rect width="40" height="33" fill="white"/>
</clipPath>
</defs>
</svg>
