<svg width="33" height="36" viewBox="0 0 33 36" fill="none" xmlns="http://www.w3.org/2000/svg">
<g clip-path="url(#clip0)">
<path d="M28.3127 4.6872C25.29 1.66445 21.272 0 16.9969 0C16.9967 0 16.9957 0 16.9954 0C14.8811 0.00025177 12.8206 0.40963 10.8716 1.21706C8.92242 2.02448 7.17614 3.19194 5.68088 4.6872C2.65838 7.7097 0.993931 11.7285 0.993931 16.003C0.993931 18.5522 1.609 21.0855 2.77445 23.3426L0.0845375 31.0271C-0.105045 31.5692 0.0291481 32.1583 0.435505 32.5644C0.719753 32.8489 1.09388 33 1.47859 33C1.6435 33 1.81017 32.9723 1.97281 32.9154L9.65734 30.2257C11.9145 31.3912 14.4478 32.0063 16.9969 32.0063C21.2715 32.0063 25.29 30.3416 28.3127 27.3191C31.3352 24.2966 32.9999 20.2778 32.9999 16.0033C32.9999 11.7285 31.3355 7.7097 28.3127 4.6872ZM26.9441 25.9504C24.2872 28.6076 20.7544 30.0707 16.9969 30.0707C14.6983 30.0707 12.4147 29.5022 10.393 28.4261C10.0264 28.2312 9.59314 28.1977 9.20415 28.3339L2.22257 30.7774L4.66625 23.7958C4.80246 23.4063 4.76872 22.973 4.57385 22.6067C3.49804 20.5855 2.92929 18.3019 2.92929 16.003C2.92929 12.2456 4.39257 8.71275 7.0495 6.05582C9.70618 3.39915 13.2385 1.93586 16.9957 1.93536H16.9969C20.7546 1.93536 24.2872 3.39864 26.9441 6.05582C29.6013 8.71275 31.0646 12.2453 31.0646 16.003C31.0646 19.7607 29.6013 23.2935 26.9441 25.9504Z" fill="white"/>
<path d="M22.9442 17.5237C22.2081 16.7876 21.0101 16.7876 20.274 17.5237L19.4688 18.3289C17.4695 17.2395 15.8516 15.6216 14.762 13.6223L15.5671 12.8171C16.3036 12.081 16.3036 10.883 15.5671 10.1469L13.3974 7.97712C12.6612 7.24094 11.4633 7.24094 10.7271 7.97712L8.9914 9.71282C7.99716 10.7071 7.94756 12.4163 8.85167 14.5259C9.63669 16.3575 11.0733 18.3707 12.8969 20.1943C14.7204 22.0178 16.7336 23.4544 18.5652 24.2394C19.5675 24.669 20.4792 24.8832 21.267 24.8832C22.1373 24.8832 22.8564 24.6216 23.3783 24.0997L25.114 22.3638V22.364C25.4708 22.0073 25.6671 21.5332 25.6671 21.0289C25.6671 20.5243 25.4708 20.0502 25.114 19.6937L22.9442 17.5237ZM22.0097 22.7311C21.7259 23.0148 20.8533 23.1143 19.3278 22.4607C17.717 21.7703 15.9191 20.4793 14.2655 18.8256C12.6119 17.172 11.321 15.3744 10.6307 13.7635C9.97683 12.2381 10.0763 11.3652 10.36 11.0814L12.0625 9.37897L14.1653 11.482L13.1574 12.4901C12.7017 12.9458 12.5917 13.6369 12.884 14.2099C14.2091 16.8082 16.2829 18.882 18.8812 20.2071C19.4545 20.4994 20.1456 20.3896 20.6013 19.9337L21.6091 18.9258L23.7121 21.0289L22.0097 22.7311Z" fill="white"/>
</g>
<defs>
<clipPath id="clip0">
<rect width="33" height="36" fill="white"/>
</clipPath>
</defs>
</svg>
