<svg width="40" height="36" viewBox="0 0 40 36" fill="none" xmlns="http://www.w3.org/2000/svg">
<g clip-path="url(#clip0)">
<path d="M26.1569 15.3588L17.3199 10.5236C16.8118 10.2455 16.2112 10.2559 15.7132 10.551C15.2148 10.8464 14.9176 11.3683 14.9176 11.9475V21.5349C14.9176 22.1114 15.213 22.6323 15.708 22.928C15.9665 23.0825 16.2531 23.16 16.5402 23.16C16.8033 23.16 17.067 23.095 17.3096 22.9644L26.1469 18.2125C26.6715 17.9302 26.9989 17.3848 27.0014 16.7888C27.0035 16.1928 26.68 15.645 26.1569 15.3588ZM17.2617 20.3289V13.1633L23.8663 16.7772L17.2617 20.3289Z" fill="white"/>
<path d="M39.7057 9.15055L39.7038 9.13224C39.6699 8.81028 39.3327 5.94652 37.9405 4.48992C36.3313 2.77667 34.507 2.56854 33.6296 2.46875C33.557 2.46051 33.4905 2.45288 33.431 2.44494L33.3611 2.43762C28.073 2.0531 20.0869 2.00061 20.0069 2.00031L19.9999 2L19.9929 2.00031C19.9129 2.00061 11.9268 2.0531 6.59116 2.43762L6.52067 2.44494C6.4639 2.45257 6.40134 2.45959 6.33329 2.46753C5.46598 2.56762 3.66118 2.77606 2.04742 4.55126C0.721433 5.99229 0.338133 8.79471 0.298766 9.10965L0.294188 9.15055C0.282286 9.28452 0 12.4739 0 15.6758V18.6689C0 21.8708 0.282286 25.0602 0.294188 25.1945L0.296325 25.2146C0.330199 25.5314 0.667112 28.3427 2.05291 29.7999C3.56597 31.4558 5.4791 31.6749 6.50815 31.7927C6.67081 31.8113 6.81089 31.8272 6.90641 31.8439L6.99887 31.8568C10.0521 32.1473 19.6252 32.2904 20.031 32.2962L20.0433 32.2965L20.0555 32.2962C20.1354 32.2959 28.1212 32.2434 33.4093 31.8589L33.4792 31.8516C33.546 31.8427 33.6211 31.8348 33.7035 31.8262C34.5659 31.7347 36.3609 31.5446 37.9524 29.7935C39.2784 28.3521 39.662 25.5497 39.7011 25.2351L39.7057 25.1942C39.7176 25.0599 40.0001 21.8708 40.0001 18.6689V15.6758C39.9998 12.4739 39.7176 9.28482 39.7057 9.15055ZM37.6558 18.6689C37.6558 21.6325 37.397 24.6845 37.3726 24.9647C37.2731 25.7365 36.8688 27.5095 36.2227 28.2118C35.2266 29.3076 34.2034 29.4163 33.4563 29.4953C33.366 29.5048 33.2823 29.5139 33.2067 29.5234C28.0919 29.8933 20.4073 29.95 20.0533 29.9522C19.6563 29.9464 10.2233 29.802 7.26315 29.5271C7.11148 29.5023 6.9476 29.4834 6.77488 29.4639C5.89872 29.3635 4.69938 29.2262 3.77715 28.2118L3.75548 28.1886C3.12072 27.5272 2.72796 25.8692 2.62816 24.9739C2.60955 24.7621 2.34405 21.674 2.34405 18.6689V15.6758C2.34405 12.7156 2.60222 9.6669 2.62725 9.38095C2.74596 8.47184 3.15795 6.80619 3.77715 6.13298C4.80375 5.00383 5.88621 4.87871 6.60215 4.79601C6.67051 4.78808 6.73429 4.78075 6.79319 4.77312C11.9824 4.40142 19.7222 4.34618 19.9999 4.34405C20.2776 4.34588 28.0147 4.40142 33.1578 4.77312C33.221 4.78106 33.29 4.78899 33.3641 4.79754C34.1005 4.88146 35.2135 5.00841 36.2349 6.09788L36.2444 6.10796C36.8791 6.76927 37.2719 8.45627 37.3717 9.36966C37.3894 9.56955 37.6558 12.6643 37.6558 15.6758V18.6689Z" fill="white"/>
</g>
<defs>
<clipPath id="clip0">
<rect width="40" height="36" fill="white"/>
</clipPath>
</defs>
</svg>
