<svg width="54" height="84" viewBox="0 0 54 84" fill="none" xmlns="http://www.w3.org/2000/svg">
<path d="M47.6486 83.7686C48.8867 83.7958 50.1025 83.4369 51.127 82.7412C52.1516 82.0455 52.9339 81.0474 53.3652 79.8865C53.7965 78.7257 53.8554 77.4594 53.5337 76.2635C53.212 75.0676 52.5257 74.0022 51.5702 73.2144L15.1121 41.9813L51.5702 10.7592C52.2312 10.2734 52.7847 9.65664 53.1962 8.947C53.6076 8.23737 53.8681 7.4502 53.9614 6.63522C54.0546 5.82024 53.9786 4.99496 53.738 4.21074C53.4975 3.42651 53.0976 2.70016 52.5634 2.07763C52.0292 1.4551 51.3723 0.950127 50.6337 0.593254C49.8951 0.236382 49.0908 0.0359425 48.2711 0.00431111C47.4514 -0.0273127 46.634 0.110177 45.8701 0.409081C45.1062 0.707986 44.4123 1.16138 43.8317 1.7409L2.09057 37.4546C1.43507 38.014 0.90871 38.7083 0.547779 39.4908C0.186844 40.2733 -6.09486e-05 41.125 -6.08733e-05 41.9868C-6.07979e-05 42.8485 0.186844 43.7002 0.547779 44.4827C0.908711 45.2652 1.43507 45.9602 2.09057 46.5196L43.8317 82.2677C44.8862 83.2043 46.2386 83.7368 47.6486 83.77L47.6486 83.7686Z" fill="white"/>
</svg>
