<svg width="14" height="21" viewBox="0 0 14 21" fill="none" xmlns="http://www.w3.org/2000/svg">
<path d="M11.7805 20.7108C12.0866 20.7176 12.3872 20.6288 12.6405 20.4568C12.8938 20.2848 13.0872 20.038 13.1939 19.751C13.3005 19.464 13.3151 19.151 13.2355 18.8553C13.156 18.5596 12.9863 18.2962 12.7501 18.1014L3.73626 10.3794L12.7501 2.66011C12.9135 2.54 13.0504 2.38752 13.1521 2.21207C13.2538 2.03662 13.3182 1.842 13.3413 1.64051C13.3643 1.43902 13.3455 1.23498 13.2861 1.04109C13.2266 0.847195 13.1277 0.667612 12.9957 0.513701C12.8636 0.359787 12.7012 0.234938 12.5186 0.146706C12.3359 0.0584718 12.1371 0.00891505 11.9344 0.00109685C11.7318 -0.00672326 11.5297 0.0272714 11.3408 0.101172C11.152 0.17507 10.9804 0.287167 10.8368 0.430447L0.516835 9.26024C0.354772 9.39855 0.224634 9.57021 0.135398 9.76367C0.0461617 9.95714 -4.76518e-05 10.1677 -4.76332e-05 10.3808C-4.76145e-05 10.5938 0.0461617 10.8044 0.135398 10.9979C0.224634 11.1913 0.354772 11.3632 0.516835 11.5015L10.8368 20.3398C11.0975 20.5713 11.4319 20.703 11.7805 20.7112L11.7805 20.7108Z" fill="black"/>
</svg>
